# xmcd
#
# Track frame offsets: 
#        150
#        32237
#        49372
#        66237
#        89692
#        108210
#        128052
#        145110
#        168450
#        188707
#        206862
#        225352
#
# Disc length: 3198 seconds
#
# Revision: 0
# Processed by: cddbd v1.5.2PL0 Copyright (c) Steve Scherf et al.
# Submitted via: ExactAudioCopy v0.95b4
#
DISCID=ab0c7c0c
DTITLE=Monica Naranjo - Tarantula
DYEAR=2008
DGENRE=Latin
TTITLE0=Europa
TTITLE1=Todo es mentira
TTITLE2=Usted
TTITLE3=Para siempre
TTITLE4=Amor y lujo
TTITLE5=Idilio
TTITLE6=Diles que no
TTITLE7=Kambalaya
TTITLE8=Eva
TTITLE9=Amor y posesion
TTITLE10=Revolucion
TTITLE11=El descanso
EXTD=
EXTT0=
EXTT1=
EXTT2=
EXTT3=
EXTT4=
EXTT5=
EXTT6=
EXTT7=
EXTT8=
EXTT9=
EXTT10=
EXTT11=
PLAYORDER=
